<?xml version="1.0" encoding="utf-8"?>
<!-- Generator: Adobe Illustrator 16.0.3, SVG Export Plug-In . SVG Version: 6.00 Build 0)  -->
<!DOCTYPE svg PUBLIC "-//W3C//DTD SVG 1.1//EN" "http://www.w3.org/Graphics/SVG/1.1/DTD/svg11.dtd">
<svg version="1.1" id="Layer_1" xmlns="http://www.w3.org/2000/svg" xmlns:xlink="http://www.w3.org/1999/xlink" x="0px" y="0px"
	 width="625.32px" height="271.28px" viewBox="45 28 535 215" enable-background="new 0 0 625.32 271.28" xml:space="preserve">
<g>
	<g>
		<path fill-rule="evenodd" clip-rule="evenodd" fill="#C8DBEB" d="M189.636,153.706c-20.184,0-40.368-4.479-55.744-13.43
			c-23.087-13.433-28.858-33.142-17.319-49.712l5.452-6.028l32.694,1.383l0.45,0.003l-5.995,4.722
			c-12.173,11.837-10.147,27.944,6.078,38.361c9.274,5.955,21.438,8.935,33.601,8.935s24.327-2.98,33.597-8.935
			c16.223-10.417,18.255-26.524,6.085-38.361l-5.731-4.507l15.383-0.218l19.563-0.828l4.948,5.473
			c11.54,16.571,5.769,36.28-17.308,49.712C230.004,149.228,209.82,153.706,189.636,153.706L189.636,153.706z"/>
		<path fill-rule="evenodd" clip-rule="evenodd" fill="#C8DBEB" d="M322.532,83.844l-1.678-2.737l-3.027,0.308l-27.767,1.982
			l3.482,5.639c10.966,20.993,1.826,44.641-27.419,61.199c-8.01,4.535-16.971,8.201-26.509,11.027h49.914
			C325.274,140.056,336.296,110.312,322.532,83.844z"/>
		<path fill-rule="evenodd" clip-rule="evenodd" fill="#C8DBEB" d="M88.271,161.274H138.5c-9.539-2.826-18.494-6.504-26.505-11.039
			c-31.911-18.062-39.881-44.563-23.929-66.852l0.806-0.988l-13.796-0.981l-17.248-1.752l-2.559,4.181
			C41.502,110.315,52.515,140.067,88.271,161.274z"/>
		<path fill-rule="evenodd" clip-rule="evenodd" fill="#C8DBEB" d="M328.233,161.263h36.12
			c27.727-26.009,33.962-56.979,18.651-85.21l-1.264-1.979l-26.398,3.531l-5.039,0.511l2.867,4.367
			C367.812,108.875,359.482,138.116,328.233,161.263z"/>
		<path fill-rule="evenodd" clip-rule="evenodd" fill="#C8DBEB" d="M397.418,161.263h33.863
			c24.032-29.759,27.52-63.101,10.394-93.895l-2.154-3.273l-14.82,3.074l-15.256,2.57l2.307,3.48
			C428,102.212,423.202,133.791,397.418,161.263z"/>
		<path fill-rule="evenodd" clip-rule="evenodd" fill="#C8DBEB" d="M464.104,161.263h34.226
			c20.901-33.05,22.187-68.897,3.791-102.282l-5.883-9.024l-11.102,3.394l-18.295,4.604l4.186,6.42
			C488.512,96.066,486.184,130.226,464.104,161.263z"/>
		<path fill-rule="evenodd" clip-rule="evenodd" fill="#C8DBEB" d="M530.409,161.274h31.555
			c22.219-42.705,17.723-88.588-13.543-130.001l-0.475-0.581l-12.936,5.904l-13,4.809l9.324,14.155
			C550.54,90.02,550.216,126.894,530.409,161.274z"/>
	</g>
	<g>
		<g>
			<g>
				<g>
					<path fill="#1D1D1B" d="M134.324,204.058c-3.633,11.875-16.523,17.332-30.703,17.332c-8.789,0-17.343-1.531-24.14-6.414
						c-6.445-4.693-9.843-11.396-9.727-18.387c-0.117-6.607,3.047-13.789,8.672-18.48c6.094-5.172,15.234-7.566,23.789-7.566
						c19.922,0,32.109,10.535,32.109,26.621v2.586H94.13c0,5.268,2.109,9.096,9.14,9.096c5.273,0,8.203-1.723,9.141-5.936
						L134.324,204.058z M110.887,190.173c0-4.789-1.875-8.426-8.438-8.426c-6.094,0-8.32,3.926-8.32,8.426H110.887z"/>
					<path fill="#1D1D1B" d="M177.33,125.151v50.371c-3.632-2.969-8.554-4.98-14.296-4.98c-18.046,0-23.906,13.119-23.906,25.664
						c0,12.066,5.977,25.184,23.202,25.184c7.5,0,12.539-2.105,15.938-7.469h0.234v6.512h22.031v-94.714
						C193.727,131.128,183.925,130.939,177.33,125.151z M175.924,206.165c-1.29,1.627-2.813,2.488-5.157,2.488
						c-7.265,0-7.617-7.66-7.617-11.969c0-2.682,0.469-6.416,1.173-9.098c0.702-2.967,2.46-5.17,6.562-5.17
						c1.875,0,3.984,0.67,5.04,1.914c1.523,1.533,1.406,3.832,1.406,5.746v9.863C177.33,202.335,177.564,204.058,175.924,206.165z"
						/>
					<path fill="#1D1D1B" d="M246.35,220.433v-8.043h-0.234c-2.461,6.32-10.43,9-18.164,9c-4.922,0-9.727-0.957-13.358-3.734
						c-4.22-3.447-4.688-7.756-4.688-12.352v-33.803h23.203v29.588c0,3.16-0.117,6.512,5.155,6.512c2.345,0,4.571-1.053,5.626-2.775
						c1.055-1.629,1.172-3.352,1.172-5.172v-28.152h23.202v48.932H246.35z"/>
					<path fill-rule="evenodd" clip-rule="evenodd" fill="#00658D" d="M300.136,181.556c1.992-6.799,6.327-11.588,15.585-11.014
						l3.162,0.191v17.143c-1.404-0.289-2.928-0.48-4.451-0.48c-3.75,0-7.617,0.576-9.491,3.354
						c-1.641,2.393-1.641,5.553-1.641,8.426v21.258h-23.203v-48.932h19.804v10.055H300.136z"/>
					<path fill-rule="evenodd" clip-rule="evenodd" fill="#00658D" d="M388.14,196.397c0,14.842-14.648,24.992-32.93,24.992
						s-32.928-10.15-32.928-24.992c0-15.705,14.18-25.855,32.928-25.855C373.96,170.542,388.14,180.692,388.14,196.397z
						 M347.124,195.728c0,13.117,3.867,14.076,8.086,14.076s8.086-0.959,8.086-14.076c0-4.691-0.117-13.215-8.086-13.215
						S347.124,191.036,347.124,195.728z"/>
					<path fill-rule="evenodd" clip-rule="evenodd" fill="#00658D" d="M433.841,220.433c-0.588-2.201-0.822-4.5-0.822-6.799
						c-4.686,5.65-11.365,7.756-19.568,7.756c-11.133,0-20.859-4.979-20.859-14.746c0-7.756,7.383-12.926,15.703-15.033
						c7.617-1.916,15.703-2.682,23.555-3.064v-0.383c0-4.406-1.406-6.129-7.031-6.129c-4.57,0-8.438,1.34-9.141,5.457l-21.328-1.627
						c3.516-12.16,17.695-15.322,31.172-15.322c7.031,0,16.055,0.768,21.912,4.215c7.852,4.5,6.916,10.82,6.916,17.811v17.141
						c0,3.639,0.115,7.277,1.873,10.725H433.841z M431.849,197.548c-5.625,0.479-15,1.914-15,7.852c0,3.16,2.461,4.5,6.094,4.5
						c8.789,0,8.906-6.033,8.906-11.395V197.548z"/>
					<path fill-rule="evenodd" clip-rule="evenodd" fill="#00658D" d="M484.462,171.501v6.607h0.234
						c3.281-4.98,9.258-7.566,16.289-7.566c7.383,0,13.24,2.299,16.875,7.566c4.102-5.459,10.078-7.566,17.928-7.566
						c5.039,0,10.43,1.244,13.947,4.215c4.336,3.639,4.336,8.428,4.336,13.598v32.078h-22.736v-29.396
						c0-3.16,0.469-6.705-4.92-6.705c-6.563,0-6.328,4.98-6.328,8.906v27.195h-22.734v-29.396c0-3.064-0.234-6.992-5.273-6.992
						c-5.508,0-5.977,3.352-5.977,6.992v29.396H463.37v-48.932H484.462z"/>
				</g>
				<path fill-rule="evenodd" clip-rule="evenodd" fill="#1D1D1B" d="M200.03,120.806c-5.931,5.93-15.558,5.93-21.488,0
					c-5.931-5.93-5.931-15.557,0-21.488c5.931-5.929,15.558-5.929,21.488,0C205.96,105.249,205.96,114.875,200.03,120.806
					L200.03,120.806z"/>
			</g>
		</g>
	</g>
</g>
</svg>
